<?xml version="1.0" encoding="utf-8"?>
<!-- Generator: Adobe Illustrator 24.0.1, SVG Export Plug-In . SVG Version: 6.00 Build 0)  -->
<svg version="1.1"
	 id="svg2" xmlns:cc="http://creativecommons.org/ns#" xmlns:dc="http://purl.org/dc/elements/1.1/" xmlns:rdf="http://www.w3.org/1999/02/22-rdf-syntax-ns#" xmlns:svg="http://www.w3.org/2000/svg"
	 xmlns="http://www.w3.org/2000/svg" xmlns:xlink="http://www.w3.org/1999/xlink" x="0px" y="0px" viewBox="0 0 128 128"
	 style="enable-background:new 0 0 128 128;" xml:space="preserve">
<style type="text/css">
	.st0{fill:#FFFFFF;}
	.st1{fill:#E90006;}
	.st2{fill:#B0B0B0;}
</style>
<rect x="20" y="4.6" class="st0" width="12" height="24.9"/>
<rect x="95.2" y="5.2" class="st0" width="12" height="24.9"/>
<title>The Binding Of Isaac</title>
<path id="pink" class="st1" d="M40,16v8h-8v8h-8v32h8v8h8v8h-8v8h16v24h8v-8h16v8h8V88h16v-8h-8v-8h8v-8h8V32h-8v-8h-8v-8H40z"/>
<path id="black" d="M40,8v8h50.3V8H40z M104,32v32h8V32H104z M104,64h-8v8h8V64z M96,72h-8v8h8V72z M96,80v8h-8v-8H40v8h-8v-8h-8v8
	v8h16v16v8h16v-8h-8V88h32v8v16h-8v8h8h8V96h8h8V80H96z M72,112v-8H56v8H72z M32,80h8v-8h-8V80z M32,72v-8h-8v8H32z M24,64V32h-8v32
	H24z M18.3,32h8v-8h-8V32z M32,16h8V8h-8V16z M26.3,11.1h8v-8h-8V11.1z M18.3,8h8V0h-8V8z M14.3,16h8V8h-8C14.3,8,14.3,16,14.3,16z
	 M12,24h8v-8h-8V24z M24,32h8v-8h-8V32z M32,24h8v-8h-8V24z M92,32h8v-8h-8V32z M107.2,16h8V8h-8V16z M102.3,11.1h8v-8h-8V11.1z
	 M94.3,8h8V0h-8V8z M90.3,16h8V8h-8V16z M88,24h8v-8h-8V24z M100,32h8v-8h-8V32z M107.2,24h8v-8h-8V24z"/>
<path id="tears" class="st1" d="M32,56v16h8v-8h8v-8H32z M80,56v8h8v8h8V56H80z"/>
<path id="shadow" class="st2" d="M32,104v8h-8v8h16v-8v-8H32z M40,120v8h48v-8H72v-8H56v8H40z M88,120h8v-8h-8V120z"/>
</svg>
