<?xml version="1.0" encoding="utf-8"?>
<!-- Generator: Adobe Illustrator 24.0.2, SVG Export Plug-In . SVG Version: 6.00 Build 0)  -->
<svg version="1.1"
	 id="svg2" xmlns:cc="http://creativecommons.org/ns#" xmlns:dc="http://purl.org/dc/elements/1.1/" xmlns:rdf="http://www.w3.org/1999/02/22-rdf-syntax-ns#" xmlns:svg="http://www.w3.org/2000/svg"
	 xmlns="http://www.w3.org/2000/svg" xmlns:xlink="http://www.w3.org/1999/xlink" x="0px" y="0px" viewBox="0 0 170.1 149"
	 style="enable-background:new 0 0 170.1 149;" xml:space="preserve">
<style type="text/css">
	.st0{fill:#E90006;}
	.st1{fill:#B0B0B0;}
	.st2{fill:#FFFFFF;}
	.st3{fill:#761811;}
	.st4{fill:#4C1310;}
	.st5{fill:#000006;}
</style>
<title>The Binding Of Isaac</title>
<path id="pink" class="st0" d="M62.2,37v8h-8v8h-8v32h8v8h8v8h-8v8h16v24h8v-8h16v8h8v-24v-8h8v-8h8v-8h8V53h-8v-8h-8v-8H62.2z"/>
<path id="black" d="M59.9,29v8h50.3v-8H59.9z M126.2,53v32h8V53H126.2z M126.2,85h-8v8h8V85z M118.2,93h-8v8h8V93z M110.2,109v-8
	h-48v8h-8v-8h-8v8v8h16v16h16h-8v-24h32v8v16h-8v8h8h8v-24 M86.2,133v-8h-16v8H86.2z M54.2,101h8v-8h-8V101z M86.2,133h8v-8h-8V133z
	 M54.2,93v-8h-8v8H54.2z M46.2,85V53h-8v32H46.2z M54.2,37h8v-8h-8V37z M42.2,53h12v-8h-12V53z M54.2,45h8v-8h-8V45z M118.2,53h12
	v-8h-12V53z M110.2,37h8v-8h-8V37z M110.2,45h8v-8h-8V45z"/>
<path id="tears" class="st0" d="M54.2,77v16h8v-8h8v-8H54.2z M102.2,77v8h8v8h8V77H102.2z"/>
<path id="shadow" class="st1" d="M54.2,125v8h-8v8h16v-8v-8H54.2z M62.2,133v16h48v-8h-16v-8h-16H62.2z M110.2,141h8v-8h-8V141z"/>
<rect x="62.2" y="73" width="8" height="8"/>
<rect x="54.2" y="73" width="8" height="8"/>
<polyline points="46.2,81 54.2,81 54.2,73 46.2,73 "/>
<rect x="71.9" y="58.7" width="8" height="8"/>
<rect x="63.9" y="58.7" width="8" height="8"/>
<polyline points="71.9,50.7 71.9,58.7 79.9,58.7 79.9,50.7 "/>
<polyline points="66.2,21 66.2,29 74.2,29 74.2,21 "/>
<polyline points="74.2,13 74.2,21 82.2,21 82.2,13 "/>
<polyline points="98.2,21 98.2,29 106.2,29 106.2,21 "/>
<polyline points="90.2,13 90.2,21 98.2,21 98.2,13 "/>
<polyline points="82.2,5 82.2,13 90.2,13 90.2,5 "/>
<polyline class="st2" points="82.2,29 82.2,37 90.2,37 90.2,29 "/>
<polyline class="st2" points="85.6,29 85.6,37 93.6,37 93.6,29 "/>
<polyline class="st2" points="78.8,29 78.8,37 86.8,37 86.8,29 "/>
<polyline class="st2" points="63.9,50.7 63.9,58.7 71.9,58.7 71.9,50.7 "/>
<rect x="78.8" y="35.8" width="14.8" height="4"/>
<rect x="110.2" y="101" width="4" height="4"/>
<rect x="114.2" y="101" width="4" height="4"/>
<rect x="118.2" y="101" width="4" height="4"/>
<rect x="122.2" y="97" width="4" height="4"/>
<rect x="110.2" y="113" width="4" height="4"/>
<rect x="114.2" y="117" width="4" height="4"/>
<rect x="114.2" y="113" class="st3" width="4" height="4"/>
<rect x="110.2" y="109" class="st3" width="4" height="4"/>
<rect x="118.2" y="93" width="4" height="4"/>
<rect x="110.2" y="105" width="4" height="4"/>
<rect x="126.2" y="101" width="4" height="4"/>
<rect x="122.2" y="101" class="st4" width="4" height="4"/>
<rect x="118.2" y="97" class="st4" width="4" height="4"/>
<rect x="122.2" y="113" class="st3" width="4" height="4"/>
<rect x="130.2" y="105" width="4" height="4"/>
<rect x="130.2" y="109" width="4" height="4"/>
<rect x="122.2" y="105" width="4" height="4"/>
<rect x="122.2" y="109" width="4" height="4"/>
<rect x="126.2" y="113" width="4" height="4"/>
<rect x="126.2" y="117" width="4" height="4"/>
<rect x="126.2" y="121" width="4" height="4"/>
<rect x="130.2" y="121" width="4" height="4"/>
<rect x="114.2" y="105" width="4" height="4"/>
<rect x="114.2" y="109" width="4" height="4"/>
<rect x="118.2" y="113" width="4" height="4"/>
<rect x="118.2" y="117" width="4" height="4"/>
<rect x="118.2" y="121" width="4" height="4"/>
<rect x="122.2" y="117" width="4" height="4"/>
<rect x="134.2" y="117" width="4" height="4"/>
<rect x="134.2" y="113" width="4" height="4"/>
<rect x="134.2" y="121" width="4" height="4"/>
<rect x="134.2" y="125" width="4" height="4"/>
<rect x="126.2" y="105" class="st4" width="4" height="8"/>
<rect x="118.2" y="105" class="st3" width="4" height="8"/>
<rect x="130.2" y="113" class="st4" width="4" height="8"/>
<rect x="62.2" y="125" class="st0" width="8" height="8"/>
<rect x="62.2" y="133" class="st5" width="8" height="8"/>
<rect x="54.2" y="133" class="st5" width="8" height="8"/>
<rect x="54.2" y="125" class="st5" width="8" height="8"/>
</svg>
