<?xml version="1.0" encoding="utf-8"?>
<!-- Generator: Adobe Illustrator 24.0.1, SVG Export Plug-In . SVG Version: 6.00 Build 0)  -->
<svg version="1.1"
	 id="svg2" xmlns:cc="http://creativecommons.org/ns#" xmlns:dc="http://purl.org/dc/elements/1.1/" xmlns:rdf="http://www.w3.org/1999/02/22-rdf-syntax-ns#" xmlns:svg="http://www.w3.org/2000/svg"
	 xmlns="http://www.w3.org/2000/svg" xmlns:xlink="http://www.w3.org/1999/xlink" x="0px" y="0px" viewBox="0 0 170.1 149"
	 style="enable-background:new 0 0 170.1 149;" xml:space="preserve">
<style type="text/css">
	.st0{fill:#FFFFFF;}
	.st1{fill:#E90006;}
	.st2{fill:#B0B0B0;}
</style>
<rect x="113.6" y="30.6" class="st0" width="12.6" height="16.9"/>
<rect x="120.8" y="27.5" class="st0" width="12.6" height="16.9"/>
<rect x="42.2" y="29" class="st0" width="12.6" height="16.9"/>
<title>The Binding Of Isaac</title>
<path id="pink" class="st1" d="M62.2,37v8h-8v8h-8v32h8v8h8v8h-8v8h16v24h8v-8h16v8h8v-24h16v-8h-8v-8h8v-8h8V53h-8v-8h-8v-8H62.2z"
	/>
<path id="black" d="M59.9,29v8h50.3v-8H59.9z M126.2,53v32h8V53H126.2z M126.2,85h-8v8h8V85z M118.2,93h-8v8h8V93z M118.2,101v8h-8
	v-8h-48v8h-8v-8h-8v8v8h16v16v8h16v-8h-8v-24h32v8v16h-8v8h8h8v-24h8h8v-16H118.2z M94.2,133v-8h-16v8H94.2z M54.2,101h8v-8h-8V101z
	 M54.2,93v-8h-8v8H54.2z M46.2,85V53h-8v32H46.2z M54.2,37h8v-8h-8V37z M46.2,29.8h8v-8h-8V29.8z M38.9,21.8h8v-8h-8V21.8z
	 M33.5,29.8h8v-8h-8V29.8z M33.5,37.8h8v-8h-8V37.8z M37.5,45h8v-8h-8V45z M42.2,53h12v-8h-12V53z M54.2,45h8v-8h-8V45z M62.2,61v8
	h-8v8h16V61H62.2z M70.2,77v16h32V77H70.2z M102.2,77h16V61h-8v8h-8V77z M118.2,53h12v-8h-12V53z M110.2,37h8v-8h-8V37z M110.2,45h8
	v-8h-8V45z M118.2,29.4h8v-8h-8 M133.6,13.4h-8v8h8V13.4z M139,21.4h-8v8h8V21.4z M139,29.4h-8v8h8V29.4z M135,45v-8h-8v8"/>
<path id="tears" class="st1" d="M54.2,77v16h8v-8h8v-8H54.2z M102.2,77v8h8v8h8V77H102.2z"/>
<path id="eyes" class="st0" d="M54.2,61v8h8v-8H54.2z M102.2,61v8h8v-8H102.2z"/>
<path id="shadow" class="st2" d="M54.2,125v8h-8v8h16v-8v-8H54.2z M62.2,141v8h48v-8h-16v-8h-16v8H62.2z M110.2,141h8v-8h-8V141z"/>
</svg>
