<?xml version="1.0" encoding="utf-8"?>
<!-- Generator: Adobe Illustrator 24.0.1, SVG Export Plug-In . SVG Version: 6.00 Build 0)  -->
<svg version="1.1"
	 id="svg2" xmlns:cc="http://creativecommons.org/ns#" xmlns:dc="http://purl.org/dc/elements/1.1/" xmlns:rdf="http://www.w3.org/1999/02/22-rdf-syntax-ns#" xmlns:svg="http://www.w3.org/2000/svg"
	 xmlns="http://www.w3.org/2000/svg" xmlns:xlink="http://www.w3.org/1999/xlink" x="0px" y="0px" viewBox="0 0 145.5 149"
	 style="enable-background:new 0 0 145.5 149;" xml:space="preserve">
<style type="text/css">
	.st0{fill:#FFFFFF;}
	.st1{fill:#E90006;}
	.st2{fill:#B0B0B0;}
</style>
<rect x="98.9" y="30.6" class="st0" width="12.6" height="16.9"/>
<rect x="106.1" y="27.5" class="st0" width="12.6" height="16.9"/>
<rect x="27.5" y="29" class="st0" width="12.6" height="16.9"/>
<title>The Binding Of Isaac</title>
<path id="pink" class="st1" d="M47.5,37v8h-8v8h-8v32h8v8h8v8h-8v8h16v24h8v-8h16v8h8v-24h16v-8h-8v-8h8v-8h8V53h-8v-8h-8v-8H47.5z"
	/>
<path id="black" d="M45.2,29v8h50.3v-8H45.2z M111.5,53v32h8V53H111.5z M111.5,85h-8v8h8V85z M103.5,93h-8v8h8V93z M103.5,101v8h-8
	v-8h-48v8h-8v-8h-8v8v8h16v16v8h16v-8h-8v-24h32v8v16h-8v8h8h8v-24h8h8v-16H103.5z M79.5,133v-8h-16v8H79.5z M39.5,101h8v-8h-8V101z
	 M39.5,93v-8h-8v8H39.5z M31.5,85V53h-8v32H31.5z M39.5,37h8v-8h-8V37z M31.5,29.8h8v-8h-8V29.8z M24.2,21.8h8v-8h-8V21.8z
	 M18.8,29.8h8v-8h-8V29.8z M18.8,37.8h8v-8h-8V37.8z M22.8,45h8v-8h-8V45z M27.5,53h12v-8h-12V53z M39.5,45h8v-8h-8V45z M103.5,53
	h12v-8h-12V53z M95.5,37h8v-8h-8V37z M95.5,45h8v-8h-8V45z M103.5,29.4h8v-8h-8 M118.9,13.4h-8v8h8V13.4z M124.3,21.4h-8v8h8V21.4z
	 M124.3,29.4h-8v8h8V29.4z M120.3,45v-8h-8v8"/>
<path id="tears" class="st1" d="M39.5,77v16h8v-8h8v-8H39.5z M87.5,77v8h8v8h8V77H87.5z"/>
<path id="shadow" class="st2" d="M39.5,125v8h-8v8h16v-8v-8H39.5z M47.5,141v8h48v-8h-16v-8h-16v8H47.5z M95.5,141h8v-8h-8V141z"/>
</svg>
