<?xml version="1.0" encoding="utf-8"?>
<!-- Generator: Adobe Illustrator 24.0.1, SVG Export Plug-In . SVG Version: 6.00 Build 0)  -->
<svg version="1.1"
	 id="svg2" xmlns:cc="http://creativecommons.org/ns#" xmlns:dc="http://purl.org/dc/elements/1.1/" xmlns:rdf="http://www.w3.org/1999/02/22-rdf-syntax-ns#" xmlns:svg="http://www.w3.org/2000/svg"
	 xmlns="http://www.w3.org/2000/svg" xmlns:xlink="http://www.w3.org/1999/xlink" x="0px" y="0px" viewBox="0 0 128 161.4"
	 style="enable-background:new 0 0 128 161.4;" xml:space="preserve">
<style type="text/css">
	.st0{fill:#D0FDFF;}
	.st1{fill:#B0B0B0;}
	.st2{fill:#E6E35A;}
</style>
<title>The Binding Of Isaac</title>
<path id="pink" class="st0" d="M39.2,49.4v8h-8v8h-8v32h8v8h8v8h-8v8h16v24h8v-8h16v8h8v-24h16v-8h-8v-8h8v-8h8v-32h-8v-8h-8v-8
	C87.2,49.4,39.2,49.4,39.2,49.4z"/>
<path id="black" d="M39.2,41.4v8h50.3v-8H39.2z M103.2,65.4v32h8v-32H103.2z M103.2,97.4h-8v8h8V97.4z M95.2,105.4h-8v8h8V105.4z
	 M95.2,113.4v8h-8v-8h-48v8h-8v-8h-8v8v8h16v16v8h16v-8h-8v-24h32v8v16h-8v8h8h8v-24h8h8v-16C103.2,113.4,95.2,113.4,95.2,113.4z
	 M71.2,145.4v-8h-16v8H71.2z M31.2,113.4h8v-8h-8V113.4z M31.2,105.4v-8h-8v8H31.2z M23.2,97.4v-32h-8v32H23.2z M31.2,49.4h8v-8h-8
	V49.4z M23.2,65.4h8v-8h-8V65.4z M31.2,57.4h8v-8h-8V57.4z M87.2,57.4h8v-8h-8V57.4z M87.2,49.4h8v-8h-8V49.4z M95.2,65.4h8v-8h-8
	V65.4z"/>
<path id="shadow" class="st1" d="M31.2,137.4v8h-8v8h16v-8v-8H31.2z M39.2,153.4v8h48v-8h-16v-8h-16v8H39.2z M87.2,153.4h8v-8h-8
	V153.4z"/>
<rect x="30.2" y="16.2" class="st2" width="64" height="17.2"/>
<rect x="39.5" y="23.4" width="45.4" height="2.8"/>
<rect x="45.2" y="20.6" width="34" height="2.8"/>
<rect x="45.2" y="26.2" width="34" height="2.8"/>
<rect x="94.2" y="22" width="8" height="5.7"/>
<rect x="86.2" y="27.7" width="8" height="5.7"/>
<rect x="78.2" y="33.2" width="8" height="5.7"/>
<rect x="70.2" y="33.2" width="8" height="5.7"/>
<rect x="62.2" y="33.2" width="8" height="5.7"/>
<rect x="54.2" y="33.2" width="8" height="5.7"/>
<rect x="46.2" y="33.2" width="8" height="5.7"/>
<rect x="38.2" y="33.2" width="8" height="5.7"/>
<rect x="30.2" y="27.7" width="8" height="5.7"/>
<polyline points="22.2,27.7 30.2,27.7 30.2,22 22.2,22 "/>
<rect x="30.2" y="16.2" width="8" height="5.7"/>
<rect x="38.2" y="10.5" width="8" height="5.7"/>
<rect x="46.2" y="10.5" width="8" height="5.7"/>
<rect x="54.2" y="10.5" width="8" height="5.7"/>
<rect x="62.2" y="10.5" width="8" height="5.7"/>
<rect x="70.2" y="10.5" width="8" height="5.7"/>
<rect x="78.2" y="10.5" width="8" height="5.7"/>
<rect x="86.2" y="16.2" width="8" height="5.7"/>
<rect x="34.2" y="13.4" width="4" height="2.8"/>
<polyline points="26.2,27.7 30.2,27.7 30.2,30.5 26.2,30.5 "/>
<polyline points="26.2,19.1 30.2,19.1 30.2,22 26.2,22 "/>
<rect x="34.2" y="33.4" width="4" height="2.8"/>
<rect x="86.2" y="33.4" width="4" height="2.8"/>
<rect x="94.2" y="27.7" width="4" height="2.8"/>
<rect x="94.2" y="19.1" width="4" height="2.9"/>
<rect x="86.2" y="13.4" width="4" height="2.8"/>
</svg>
