<?xml version="1.0" encoding="utf-8"?>
<!-- Generator: Adobe Illustrator 24.0.1, SVG Export Plug-In . SVG Version: 6.00 Build 0)  -->
<svg version="1.1"
	 id="svg2" xmlns:cc="http://creativecommons.org/ns#" xmlns:dc="http://purl.org/dc/elements/1.1/" xmlns:rdf="http://www.w3.org/1999/02/22-rdf-syntax-ns#" xmlns:svg="http://www.w3.org/2000/svg"
	 xmlns="http://www.w3.org/2000/svg" xmlns:xlink="http://www.w3.org/1999/xlink" x="0px" y="0px" viewBox="0 0 128 166.8"
	 style="enable-background:new 0 0 128 166.8;" xml:space="preserve">
<style type="text/css">
	.st0{fill:#E6E35A;}
	.st1{fill:#D0FDFF;}
	.st2{fill:#B0B0B0;}
	.st3{fill:#FFFFFF;}
</style>
<rect x="32" y="19.1" class="st0" width="64" height="17.2"/>
<title>The Binding Of Isaac</title>
<path id="pink" class="st1" d="M40,54.8v8h-8v8h-8v32h8v8h8v8h-8v8h16v24h8v-8h16v8h8v-24l8-8l0,0v-8h8v-8h8v-32h-8v-8h-8v-8
	C88,54.8,40,54.8,40,54.8z"/>
<path id="black" d="M40,46.8v8h48v-8H40z M41.3,26.3v2.8h45.4v-2.8H41.3z M47,23.5v2.8h34v-2.8H47z M47,29.1v2.8h34v-2.8H47z
	 M88,54.8v8h8v-8H88z M96,24.9v5.7h8v-5.7C104,24.9,96,24.9,96,24.9z M88,30.6v5.7h8v-5.7C96,30.6,88,30.6,88,30.6z M80,36.1v5.7h8
	v-5.7H80z M72,36.1v5.7h8v-5.7H72z M64,36.1v5.7h8v-5.7H64z M56,36.1v5.7h8v-5.7H56z M48,36.1v5.7h8v-5.7H48z M40,36.1v5.7h8v-5.7
	H40z M32,30.6v5.7h8v-5.7C40,30.6,32,30.6,32,30.6z M24,24.9v5.7h8v-5.7C32,24.9,24,24.9,24,24.9z M32,19.1v5.7h8v-5.7
	C40,19.1,32,19.1,32,19.1z M40,13.4v5.7h8v-5.7C48,13.4,40,13.4,40,13.4z M48,13.4v5.7h8v-5.7C56,13.4,48,13.4,48,13.4z M56,13.4
	v5.7h8v-5.7C64,13.4,56,13.4,56,13.4z M64,13.4v5.7h8v-5.7C72,13.4,64,13.4,64,13.4z M72,13.4v5.7h8v-5.7C80,13.4,72,13.4,72,13.4z
	 M80,13.4v5.7h8v-5.7C88,13.4,80,13.4,80,13.4z M88,19.1v5.7h8v-5.7C96,19.1,88,19.1,88,19.1z M96,62.8v8h8v-8
	C104,62.8,96,62.8,96,62.8z M104,70.8v32h8v-32H104z M87.7,118.8h-8v40h8V118.8z M96,110.8h-8v8h8V110.8z M48,126.8h-8v8h8V126.8z
	 M104,102.8h-8v8h8V102.8z M79.7,118.8H40v8h39.7V118.8z M88,126.8v-8H40v8h-8v-8h-8v8v8h16v8h8l0,0v-16h32v8v16h-8v8h8h8v-24
	 M72,150.8v-8H56v8H72z M32,118.8h8v-8h-8V118.8z M32,110.8v-8h-8v8H32z M24,102.8v-32h-8v32H24z M24,70.8h8v-8h-8V70.8z M40,99h8
	v-8h-8V99z M32,99h8v-8h-8V99z M24,99h8v-8h-8V99z M49.3,84h8v-8h-8V84z M41.3,84h8v-8h-8V84z M49.3,76h8v-8h-8V76z M32,62.8h8v-8
	h-8V62.8z M40,19.1h-4v-2.8h4V19.1z M32,33.4h-4v-2.8h4V33.4z M32,24.9h-4V22h4V24.9z M40,39.1h-4v-2.8h4V39.1z M92,39.1h-4v-2.8h4
	V39.1z M100,33.4h-4v-2.8h4V33.4z M100,24.9h-4V22h4V24.9z M92,19.1h-4v-2.8h4V19.1z"/>
<path id="shadow" class="st2" d="M32,142.8v8h-8v8h16v-8v-8H32z M40,158.8v8h48v-8H72v-8H56v8H40z M88,158.8h8v-8h-8V158.8z
	 M48,158.8h8v-8h-8V158.8z"/>
<rect x="41.3" y="68" class="st3" width="8" height="8"/>
<rect x="48" y="142.8" width="8" height="8"/>
<rect x="40" y="142.8" class="st1" width="8" height="8"/>
<rect x="40" y="150.8" width="8" height="8"/>
<rect x="32" y="150.8" width="8" height="8"/>
<rect x="32" y="142.8" width="8" height="8"/>
</svg>
