<?xml version="1.0" encoding="utf-8"?>
<!-- Generator: Adobe Illustrator 24.0.1, SVG Export Plug-In . SVG Version: 6.00 Build 0)  -->
<svg version="1.1"
	 id="svg2" xmlns:cc="http://creativecommons.org/ns#" xmlns:dc="http://purl.org/dc/elements/1.1/" xmlns:rdf="http://www.w3.org/1999/02/22-rdf-syntax-ns#" xmlns:svg="http://www.w3.org/2000/svg"
	 xmlns="http://www.w3.org/2000/svg" xmlns:xlink="http://www.w3.org/1999/xlink" x="0px" y="0px" viewBox="0 0 144.6 161.6"
	 style="enable-background:new 0 0 144.6 161.6;" xml:space="preserve">
<style type="text/css">
	.st0{fill:#D0FDFF;}
	.st1{fill:#FFFFFF;}
	.st2{fill:#B0B0B0;}
	.st3{fill:#E6E35A;}
</style>
<title>The Binding Of Isaac</title>
<path id="pink" class="st0" d="M40,49.6v8h-8v8h-8v32h8v8h8v8h-8v8h16v24h8v-8h16v8h8v-24h16v-8h-8v-8h8v-8h8v-32h-8v-8h-8v-8
	C88,49.6,40,49.6,40,49.6z"/>
<path id="black" d="M40,41.6v8h50.3v-8H40z M104,65.6v32h8v-32H104z M104,97.6h-8v8h8V97.6z M96,105.6h-8v8h8V105.6z M96,113.6v8h-8
	v-8H40v8h-8v-8h-8v8v8h16v16v8h16v-8h-8v-24h32v8v16h-8v8h8h8v-24h8h8v-16C104,113.6,96,113.6,96,113.6z M72,145.6v-8H56v8H72z
	 M32,113.6h8v-8h-8V113.6z M32,105.6v-8h-8v8H32z M24,97.6v-32h-8v32H24z M24,65.6h8v-8h-8V65.6z M32,57.6h8v-8h-8V57.6z M40,73.6v8
	h-8v8h16v-16H40z M48,89.6v16h32v-16H48z M80,89.6h16v-16h-8v8h-8V89.6z M96,65.6h8v-8h-8V65.6z M88,57.6h8v-8h-8V57.6z"/>
<path id="eyes" class="st1" d="M32,73.6v8h8v-8H32z M80,73.6v8h8v-8H80z"/>
<path id="shadow" class="st2" d="M32,137.6v8h-8v8h16v-8v-8H32z M40,153.6v8h48v-8H72v-8H56v8H40z M88,153.6h8v-8h-8V153.6z"/>
<rect x="32" y="16.6" class="st3" width="64" height="17.2"/>
<rect x="41.3" y="23.8" width="45.4" height="2.8"/>
<rect x="47" y="21" width="34" height="2.8"/>
<rect x="47" y="26.6" width="34" height="2.8"/>
<rect x="96" y="22.4" width="8" height="5.7"/>
<rect x="88" y="28.1" width="8" height="5.7"/>
<rect x="80" y="33.6" width="8" height="5.7"/>
<rect x="72" y="33.6" width="8" height="5.7"/>
<rect x="64" y="33.6" width="8" height="5.7"/>
<rect x="56" y="33.6" width="8" height="5.7"/>
<rect x="48" y="33.6" width="8" height="5.7"/>
<rect x="40" y="33.6" width="8" height="5.7"/>
<rect x="32" y="28.1" width="8" height="5.7"/>
<polyline points="24,28.1 32,28.1 32,22.4 24,22.4 "/>
<rect x="32" y="16.6" width="8" height="5.7"/>
<rect x="40" y="10.9" width="8" height="5.7"/>
<rect x="48" y="10.9" width="8" height="5.7"/>
<rect x="56" y="10.9" width="8" height="5.7"/>
<rect x="64" y="10.9" width="8" height="5.7"/>
<rect x="72" y="10.9" width="8" height="5.7"/>
<rect x="80" y="10.9" width="8" height="5.7"/>
<rect x="88" y="16.6" width="8" height="5.7"/>
<rect x="36" y="13.8" width="4" height="2.8"/>
<polyline points="28,28.1 32,28.1 32,30.9 28,30.9 "/>
<polyline points="28,19.5 32,19.5 32,22.4 28,22.4 "/>
<rect x="36" y="33.8" width="4" height="2.8"/>
<rect x="88" y="33.8" width="4" height="2.8"/>
<rect x="96" y="28.1" width="4" height="2.8"/>
<rect x="96" y="19.5" width="4" height="2.9"/>
<rect x="88" y="13.8" width="4" height="2.8"/>
</svg>
